<?xml version="1.0" encoding="UTF-8"?>
<svg width="1200" height="900" viewBox="0 0 1200 900" xmlns="http://www.w3.org/2000/svg">
  <rect width="1200" height="900" fill="#F3EFE4"/>
  <rect x="22" y="22" width="1156" height="856" fill="none" stroke="#2E2E35" stroke-width="1" opacity="0.25"/>
  <rect x="32" y="32" width="1136" height="836" fill="none" stroke="#33518F" stroke-width="3"/>
  
  <clipPath id="plate-kumihimo-belt-2">
    <rect x="40.0" y="40.0" width="974.0" height="820.0"/>
  </clipPath>
  <pattern id="pat-plate-kumihimo-belt-2" x="40.0" y="40.0" width="612.2" height="612.2" patternUnits="userSpaceOnUse" patternTransform="rotate(17 527.0 450.0)">
    <g transform="scale(2.8)"><polygon points="-78.0,0 32.3,0 188.3,220.6 78.0,220.6" fill="#7FA3C7" opacity="0.3"/><polygon points="142.6,0 252.9,0 408.9,220.6 298.6,220.6" fill="#7FA3C7" opacity="0.3"/><line x1="-31.2" y1="-23.4" x2="31.2" y2="23.4" stroke="#7FA3C7" stroke-width="1" opacity="0.55"/><line x1="-9.1" y1="20.7" x2="53.3" y2="67.5" stroke="#7FA3C7" stroke-width="1" opacity="0.55"/><line x1="12.9" y1="64.8" x2="75.3" y2="111.6" stroke="#7FA3C7" stroke-width="1" opacity="0.55"/><line x1="35.0" y1="109.0" x2="97.4" y2="155.8" stroke="#7FA3C7" stroke-width="1" opacity="0.55"/><line x1="57.0" y1="153.1" x2="119.4" y2="199.9" stroke="#7FA3C7" stroke-width="1" opacity="0.55"/><line x1="79.1" y1="197.2" x2="141.5" y2="244.0" stroke="#7FA3C7" stroke-width="1" opacity="0.55"/></g>
  </pattern>
  <g clip-path="url(#plate-kumihimo-belt-2)">
    <rect x="40.0" y="40.0" width="974.0" height="820.0" fill="#F3EFE4"/>
    <rect x="40.0" y="40.0" width="974.0" height="820.0" fill="url(#pat-plate-kumihimo-belt-2)"/>
  </g>
  <line x1="1024.0" y1="40.0" x2="1024.0" y2="860.0" stroke="#2E2E35" stroke-width="1" opacity="0.2"/>
  <text x="1100.0" y="76.0" font-family="'Hiragino Mincho ProN','Yu Mincho','Noto Serif JP',serif" font-size="56.0" text-anchor="middle" fill="#2E2E35"><tspan x="1100.0" dy="0">絹</tspan><tspan x="1100.0" dy="64.4">組</tspan><tspan x="1100.0" dy="64.4">紐</tspan><tspan x="1100.0" dy="64.4">帯</tspan></text>
  <g transform="translate(58.0, 786.0)">
    <rect width="56" height="56" fill="#C2451E"/>
    <text x="28" y="38.64" font-family="serif" font-size="32.48" text-anchor="middle" fill="#F3EFE4">絹</text>
  </g>
</svg>