<?xml version="1.0" encoding="UTF-8"?>
<svg width="1200" height="900" viewBox="0 0 1200 900" xmlns="http://www.w3.org/2000/svg">
  <rect width="1200" height="900" fill="#F3EFE4"/>
  <rect x="22" y="22" width="1156" height="856" fill="none" stroke="#2E2E35" stroke-width="1" opacity="0.25"/>
  <rect x="32" y="32" width="1136" height="836" fill="none" stroke="#33518F" stroke-width="3"/>
  
  <clipPath id="plate-washi-scroll-2">
    <rect x="40.0" y="40.0" width="974.0" height="820.0"/>
  </clipPath>
  <pattern id="pat-plate-washi-scroll-2" x="40.0" y="40.0" width="397.8" height="397.8" patternUnits="userSpaceOnUse" patternTransform="rotate(137 527.0 450.0)">
    <g transform="scale(2.9)"><path d="M 47.1 0.0 A 20.9 20.9 0 0 1 88.9 0.0" fill="none" stroke="#33518F" stroke-width="1.5" opacity="0.38"/><path d="M 26.3 0.0 A 41.7 41.7 0 0 1 109.7 0.0" fill="none" stroke="#33518F" stroke-width="1.5" opacity="0.46"/><path d="M 5.4 0.0 A 62.6 62.6 0 0 1 130.6 0.0" fill="none" stroke="#33518F" stroke-width="1.5" opacity="0.54"/><path d="M -20.9 68.0 A 20.9 20.9 0 0 1 20.9 68.0" fill="none" stroke="#33518F" stroke-width="1.5" opacity="0.38"/><path d="M -41.7 68.0 A 41.7 41.7 0 0 1 41.7 68.0" fill="none" stroke="#33518F" stroke-width="1.5" opacity="0.46"/><path d="M -62.6 68.0 A 62.6 62.6 0 0 1 62.6 68.0" fill="none" stroke="#33518F" stroke-width="1.5" opacity="0.54"/><path d="M 115.1 68.0 A 20.9 20.9 0 0 1 156.9 68.0" fill="none" stroke="#33518F" stroke-width="1.5" opacity="0.38"/><path d="M 94.3 68.0 A 41.7 41.7 0 0 1 177.7 68.0" fill="none" stroke="#33518F" stroke-width="1.5" opacity="0.46"/><path d="M 73.4 68.0 A 62.6 62.6 0 0 1 198.6 68.0" fill="none" stroke="#33518F" stroke-width="1.5" opacity="0.54"/></g>
  </pattern>
  <g clip-path="url(#plate-washi-scroll-2)">
    <rect x="40.0" y="40.0" width="974.0" height="820.0" fill="#F3EFE4"/>
    <rect x="40.0" y="40.0" width="974.0" height="820.0" fill="url(#pat-plate-washi-scroll-2)"/>
  </g>
  <line x1="1024.0" y1="40.0" x2="1024.0" y2="860.0" stroke="#2E2E35" stroke-width="1" opacity="0.2"/>
  <text x="1100.0" y="76.0" font-family="'Hiragino Mincho ProN','Yu Mincho','Noto Serif JP',serif" font-size="56.0" text-anchor="middle" fill="#2E2E35"><tspan x="1100.0" dy="0">和</tspan><tspan x="1100.0" dy="64.4">紙</tspan><tspan x="1100.0" dy="64.4">巻</tspan><tspan x="1100.0" dy="64.4">物</tspan></text>
  <g transform="translate(58.0, 786.0)">
    <rect width="56" height="56" fill="#C2451E"/>
    <text x="28" y="38.64" font-family="serif" font-size="32.48" text-anchor="middle" fill="#F3EFE4">和</text>
  </g>
</svg>