<?xml version="1.0" encoding="UTF-8"?>
<svg width="1200" height="900" viewBox="0 0 1200 900" xmlns="http://www.w3.org/2000/svg">
  <rect width="1200" height="900" fill="#F3EFE4"/>
  <rect x="22" y="22" width="1156" height="856" fill="none" stroke="#2E2E35" stroke-width="1" opacity="0.25"/>
  <rect x="32" y="32" width="1136" height="836" fill="none" stroke="#33518F" stroke-width="3"/>
  
  <clipPath id="plate-bamboo-tea-whisk-1">
    <rect x="40.0" y="40.0" width="974.0" height="820.0"/>
  </clipPath>
  <pattern id="pat-plate-bamboo-tea-whisk-1" x="40.0" y="40.0" width="73.9" height="73.9" patternUnits="userSpaceOnUse" patternTransform="rotate(165 527.0 450.0)">
    <g transform="scale(0.8)"><circle cx="0" cy="0" r="88.0" fill="none" stroke="#33518F" stroke-width="1.5" opacity="0.42"/><circle cx="88" cy="0" r="88.0" fill="none" stroke="#33518F" stroke-width="1.5" opacity="0.42"/><circle cx="0" cy="88" r="88.0" fill="none" stroke="#33518F" stroke-width="1.5" opacity="0.42"/><circle cx="88" cy="88" r="88.0" fill="none" stroke="#33518F" stroke-width="1.5" opacity="0.42"/></g>
  </pattern>
  <g clip-path="url(#plate-bamboo-tea-whisk-1)">
    <rect x="40.0" y="40.0" width="974.0" height="820.0" fill="#F3EFE4"/>
    <rect x="40.0" y="40.0" width="974.0" height="820.0" fill="url(#pat-plate-bamboo-tea-whisk-1)"/>
  </g>
  <line x1="1024.0" y1="40.0" x2="1024.0" y2="860.0" stroke="#2E2E35" stroke-width="1" opacity="0.2"/>
  <text x="1100.0" y="76.0" font-family="'Hiragino Mincho ProN','Yu Mincho','Noto Serif JP',serif" font-size="56.0" text-anchor="middle" fill="#2E2E35"><tspan x="1100.0" dy="0">竹</tspan><tspan x="1100.0" dy="64.4">製</tspan><tspan x="1100.0" dy="64.4">抹</tspan><tspan x="1100.0" dy="64.4">茶</tspan><tspan x="1100.0" dy="64.4">泡</tspan><tspan x="1100.0" dy="64.4">立</tspan><tspan x="1100.0" dy="64.4">て</tspan></text>
  <g transform="translate(58.0, 786.0)">
    <rect width="56" height="56" fill="#C2451E"/>
    <text x="28" y="38.64" font-family="serif" font-size="32.48" text-anchor="middle" fill="#F3EFE4">竹</text>
  </g>
</svg>